<svg width="16" height="16" viewBox="0 0 16 16" fill="none" xmlns="http://www.w3.org/2000/svg">
<path d="M13.7071 6.70711C14.0976 6.31658 14.0976 5.68342 13.7071 5.29289C13.3166 4.90237 12.6834 4.90237 12.2929 5.29289L13.7071 6.70711ZM8 11L7.29289 11.7071C7.68342 12.0976 8.31658 12.0976 8.70711 11.7071L8 11ZM3.70711 5.29289C3.31658 4.90237 2.68342 4.90237 2.29289 5.29289C1.90237 5.68342 1.90237 6.31658 2.29289 6.70711L3.70711 5.29289ZM12.2929 5.29289L7.29289 10.2929L8.70711 11.7071L13.7071 6.70711L12.2929 5.29289ZM8.70711 10.2929L3.70711 5.29289L2.29289 6.70711L7.29289 11.7071L8.70711 10.2929Z" fill="#7D868F"/>
</svg>
