<svg width="23" height="22" viewBox="0 0 23 22" fill="none" xmlns="http://www.w3.org/2000/svg">
<path d="M5.94061 0.767857C6.61529 0.799955 7.22819 1.17042 7.57021 1.75287L8.83953 3.91448C9.17174 4.48023 9.20536 5.17293 8.92949 5.76818L7.80187 8.20128C7.80187 8.20128 8.32269 10.3726 10.1574 12.2073C11.9921 14.042 14.1559 14.5553 14.1559 14.5553L16.5883 13.428C17.1839 13.1519 17.8771 13.1858 18.443 13.5185L20.6128 14.7943C21.1947 15.1365 21.5647 15.7491 21.5968 16.4233L21.6112 16.7252C21.741 19.4541 19.1696 21.4475 16.6646 20.3573C13.7377 19.0836 10.1822 17.1837 7.68159 14.6831C5.18101 12.1825 3.28112 8.62695 2.00738 5.70011C0.917218 3.1951 2.91064 0.623705 5.6395 0.753532L5.94061 0.767857Z" stroke="#005AAB" stroke-width="1.5" stroke-linejoin="round"/>
</svg>
